# xmcd
#
# Track frame offsets:
#	150
#	35092
#	51290
#	72107
#	86220
#	118552
#	135915
#	159567
#	179405
#	192005
#	211920
#	237860
#	256192
#	279690
#
# Disc length: 3930 seconds
#
# Revision: 1
# Processed by: cddbd v1.4PL0 Copyright (c) Steve Scherf et al.
# Submitted via: EasyCDDAExtractor 6.0.0.1
#
DISCID=c50f580e
DTITLE=Jimmy Burns - Leaving Here Walking
DYEAR=1996
DGENRE=Blues
TTITLE0=Leaving Here Walking
TTITLE1=Twelve Year Old Boy
TTITLE2=Miss Annie Lou
TTITLE3=Whiskey Headed Woman
TTITLE4=One Room Country Shack
TTITLE5=Shake Your Boogie
TTITLE6=Better Know What You're Doing
TTITLE7=Rollin' and Tumblin'
TTITLE8=Gypsy Woman
TTITLE9=How Many Times
TTITLE10=Mean Mistreating Mama
TTITLE11=Notoriety Woman
TTITLE12=Talk To Me
TTITLE13=Catfish Blues
EXTD=
EXTT0=
EXTT1=
EXTT2=
EXTT3=
EXTT4=
EXTT5=
EXTT6=
EXTT7=
EXTT8=
EXTT9=
EXTT10=
EXTT11=
EXTT12=
EXTT13=
PLAYORDER=
